<?xml version="1.0" standalone="no"?>
<!DOCTYPE svg PUBLIC "-//W3C//DTD SVG 1.1//EN" "http://www.w3.org/Graphics/SVG/1.1/DTD/svg11.dtd" >
<svg>
<metadata>
Created by FontForge 20090622 at Wed Apr 19 19:12:30 2017
 By deploy user
&#194;&#169; koeiekat 2007 All Rights Reserved
</metadata>
<defs>
<font id="monogramkk" horiz-adv-x="569" >
  <font-face 
    font-family="monogram kk"
    font-weight="400"
    font-stretch="normal"
    units-per-em="2048"
    panose-1="2 0 0 0 0 0 0 0 0 0"
    ascent="1638"
    descent="-410"
    cap-height="1864"
    bbox="0 0 1524 1876"
    underline-thickness="150"
    underline-position="-142"
    unicode-range="U+0020-U+005A"
  />
<missing-glyph horiz-adv-x="1536" 
d="M256 0v1280h1024v-1280h-1024zM288 32h960v1216h-960v-1216z" />
    <glyph glyph-name=".notdef" horiz-adv-x="1536" 
d="M256 0v1280h1024v-1280h-1024zM288 32h960v1216h-960v-1216z" />
    <glyph glyph-name=".null" horiz-adv-x="0" 
 />
    <glyph glyph-name="nonmarkingreturn" 
 />
    <glyph glyph-name="space" unicode=" " 
 />
    <glyph glyph-name="space" unicode="&#xa0;" 
 />
    <glyph glyph-name="A" unicode="A" horiz-adv-x="1366" 
d="M852 1864q42 0 140 -64v-12q-144 -137 -144 -260q-18 0 -20 -492v-12h52q97 0 188 -56q74 -54 88 -132v-64q0 -68 -104 -112h-12q-69 0 -92 32v4l12 12q21 -24 64 -24h28q32 0 76 60l8 56v20q0 115 -176 172l-104 12h-28v-384q0 -477 104 -564q51 -36 104 -36h28
q96 0 172 104q24 45 40 132v84q-8 168 -128 212l-28 8q-84 0 -144 -156l-4 -20v-32q30 -148 56 -148q0 -8 40 -40l-12 -12q-51 15 -92 128l-16 92q53 208 176 208q85 -20 116 -68q60 -76 60 -200q0 -229 -164 -296q-15 -16 -52 -16h-40q-127 0 -244 152q-104 198 -104 460
v204l4 176l4 12h-76v-92l-8 -8h-4l-8 8v92h-88q40 -368 40 -488q0 -216 -80 -372q-74 -104 -180 -136l-40 -8q-139 0 -200 104q-60 74 -60 204v36q3 68 48 164q60 88 176 88q35 0 88 -64q32 -56 32 -144v-16q0 -37 -44 -120q-47 -62 -100 -72l-4 4v16q55 0 108 108
q13 0 20 92q0 139 -100 172l-16 4q-79 -12 -124 -52q-64 -99 -64 -212q0 -195 144 -276q50 -16 84 -16q89 0 168 136q52 96 52 288q-36 464 -36 560h-4q-237 0 -312 140q-16 49 -16 112q12 116 104 144l20 4q62 0 120 -64v-4l-12 -12q-32 42 -92 56h-28q-92 -29 -92 -136
q0 -140 124 -188q76 -32 188 -32v128q0 372 124 520q55 113 204 172zM504 1252q4 -159 16 -228h88v80l8 8h4l8 -8v-80h76v48l-4 56q12 195 40 296q78 266 216 372q-51 44 -104 44h-16q-73 -7 -144 -56q-99 -94 -136 -188q-52 -137 -52 -344z" />
    <glyph glyph-name="B" unicode="B" horiz-adv-x="1133" 
d="M516 1872q97 0 192 -40q127 -47 204 -160q80 -134 80 -268q0 -244 -188 -380h-4v-8q14 0 52 -36q132 -118 164 -220q48 -117 48 -232q0 -290 -144 -408q-45 -68 -140 -100q-40 -16 -68 -16h-56q-88 0 -192 96q-90 -100 -216 -100q-160 0 -232 212l-8 96v20q0 159 112 244
q72 24 100 24q75 0 116 -100q16 -43 16 -108v-16q-28 -116 -48 -116q0 -38 -96 -76l-4 4v16q128 52 128 204q0 125 -92 168l-16 4q-82 0 -136 -60q-60 -91 -60 -204q0 -197 144 -276l44 -12h52q90 0 180 100q-68 75 -68 120l-4 12v8q0 115 96 188q14 12 40 12v72l-28 384
l-4 4h-64q-84 2 -96 56v8q0 73 148 84h4v48l-4 4v4q-66 -32 -156 -32q-184 0 -280 160q-32 67 -32 120v28q0 83 60 208q134 177 304 228q60 23 152 32zM20 1400v-20q0 -150 168 -240q48 -20 92 -20h76q60 0 112 36v56q0 149 84 324l-76 20q-103 -18 -156 -68
q-68 -73 -68 -124l-4 -4l-16 8q9 77 80 140q49 49 160 68l88 -20q43 77 128 124l48 40h8l12 -12q0 -10 -72 -56q-73 -61 -88 -104q92 -73 92 -144q0 -125 -120 -204l12 -132h4q172 -18 172 -28q93 100 120 268l4 68v60q0 250 -241 392q-59 20 -135 20h-16q-150 -24 -240 -84
q-125 -88 -180 -180q-48 -113 -48 -184zM588 1516q-24 -58 -24 -236l4 -52q100 72 100 168q0 79 -80 124v-4zM340 988q0 -37 76 -44h64q-5 108 -12 108q-128 -11 -128 -64zM584 1044v-4l8 -88q95 19 136 60v4q-47 28 -132 28h-12zM596 932q20 -207 20 -308v-32
q0 -84 -8 -132q104 -54 104 -140v-12q0 -102 -92 -144l-28 -8l-4 4v16q53 12 76 48q28 39 28 84v8q0 75 -88 120v-12q-27 -168 -88 -260l-36 -48q72 -84 180 -84q63 0 152 64q57 61 96 152q32 72 32 260q0 258 -104 396q-12 32 -72 92q-91 -48 -168 -64zM396 288
q0 -80 60 -144v-4q31 0 56 252l-4 52q-42 0 -96 -96z" />
    <glyph glyph-name="C" unicode="C" horiz-adv-x="1113" 
d="M696 1864h16q109 -10 152 -40q101 -95 116 -136q28 0 60 -240q0 -106 -72 -220q-98 -120 -180 -120h-40q-74 11 -100 40q-126 -148 -268 -148v-4l-8 -216q0 -387 48 -532q54 -176 96 -176q60 -48 112 -48q181 0 248 248q28 95 28 200v28q0 187 -72 312q-40 57 -72 60
q0 9 -36 12h-32q-59 0 -156 -104l-40 -96l-12 -88q11 -110 24 -112q59 104 176 104h4q90 0 140 -80l12 -36v-12q0 -96 -112 -132l-48 -8q-102 0 -176 112l-8 -64l16 -68l-12 -8q-12 0 -28 84l20 84q-28 80 -28 128q0 215 180 304q34 12 76 16q150 0 256 -184
q48 -106 48 -244v-20q0 -262 -188 -396q-105 -64 -212 -64q-101 0 -228 120q-105 113 -148 336q-24 145 -24 320v80l4 160q-57 0 -160 100q-68 109 -68 216v40q0 113 120 260q151 136 308 136l4 -4v-8q0 -11 -80 -16q-105 -22 -220 -128q-46 -43 -68 -104q-44 -68 -44 -140
v-32q0 -114 76 -220q72 -71 136 -76q0 147 72 404q57 167 148 280q105 108 160 124q47 16 84 16zM380 1024h16q120 0 232 136q-60 114 -60 208q0 124 80 168l16 4q72 0 84 -128v-24q0 -128 -88 -228l32 -20l4 4h24q163 0 192 284v84q0 197 -108 304q-51 24 -100 24
q-97 -25 -152 -100q-70 -111 -108 -216q-64 -318 -64 -500zM588 1352q0 -51 52 -172h4q84 84 84 212q-2 111 -56 128q-84 -19 -84 -168zM516 460q19 -51 84 -100l56 -16h36q128 19 128 116q0 75 -112 108h-28q-106 0 -164 -108z" />
    <glyph glyph-name="D" unicode="D" horiz-adv-x="1133" 
d="M520 1872q214 0 380 -288q160 -296 160 -684q0 -635 -252 -844q-63 -52 -188 -52h-8q-127 0 -244 68q-88 -68 -160 -68l-40 -4q-73 0 -156 80q-12 15 -12 36v12q0 72 148 104h12q83 0 244 -108q92 79 92 128q24 64 24 220l-16 340q0 24 -8 24q-34 -20 -104 -20h-4
q-139 0 -216 92q-90 85 -128 232q-12 37 -12 84v20q0 118 36 232q104 241 308 356q68 28 144 40zM168 1272v-28q0 -200 60 -324q72 -84 144 -84h40l88 20l-16 276q0 193 44 300q-132 -46 -176 -132l-12 -48v-28l-8 -8h-4q-8 0 -12 32q6 57 60 120q53 51 160 88
q35 105 180 232h4l12 -12v-8q-50 -15 -128 -200v-12h12q68 0 148 -84q38 -85 40 -136q0 -123 -100 -260l-60 -52l4 -192q0 -274 -92 -472q-66 -94 -136 -144q26 -44 124 -76l84 -16q114 0 196 116q43 49 80 168q56 204 56 424q0 553 -84 736q-43 122 -136 252
q-98 104 -188 120q-134 0 -204 -88q-180 -154 -180 -480zM600 1436v-4l-4 -32q16 -257 44 -452q86 53 132 216q8 20 8 72v12q0 72 -64 144q-68 44 -100 44h-16zM40 100q32 -72 108 -72l24 -4h24q76 0 144 56h4v4l-124 68l-60 4h-8q-112 -8 -112 -56z" />
    <glyph glyph-name="E" unicode="E" horiz-adv-x="1180" 
d="M728 1872q117 0 240 -84q148 -127 148 -296q0 -219 -180 -324q-59 -24 -100 -24h-12q-86 0 -144 64q-94 -97 -172 -116l-36 -8q18 -35 60 -68q143 52 196 52h36q151 0 192 -96v-4q0 -45 -100 -60h-92q-78 0 -240 68q-120 -112 -148 -224q-28 -78 -40 -248q0 -109 48 -296
q42 -114 188 -172l108 -12q177 0 252 180q33 38 52 204v32q0 204 -108 316q-64 36 -96 36h-12q-120 0 -196 -120q-40 -103 -40 -148q87 56 168 56q109 -24 144 -76q24 -43 24 -56v-28q0 -100 -96 -132l-20 -4h-24q-127 0 -200 120l-12 68h-4q-36 -72 -36 -88v-28
q0 -42 28 -80l-4 -4h-12q-36 48 -36 88q0 64 60 140q0 161 108 264q87 52 172 52q99 -10 188 -72q140 -127 140 -320q0 -181 -136 -316q-153 -108 -296 -108q-236 0 -356 156q-136 180 -136 376q7 123 76 260q103 159 216 204v4q-16 0 -88 72q-215 0 -260 80
q-85 53 -128 212l-12 68q3 69 56 180q87 142 252 192l40 8q72 -4 72 -16v-4l-4 -4v-4l-72 8q-120 -25 -224 -124q-96 -132 -96 -236q0 -114 92 -236q96 -100 196 -100h76q-96 121 -96 244q-6 0 -12 88q0 176 152 320q158 124 296 124zM404 1364q0 -117 56 -260h4
q142 36 204 124l-52 100q-20 90 -20 136q35 184 136 184q72 -20 72 -128l4 -48q0 -124 -108 -248v-4q36 -36 88 -36h24q115 0 164 196q12 43 12 104v4q0 285 -188 344l-64 16h-4q-96 0 -208 -100q-120 -147 -120 -384zM616 1452q20 -156 40 -156q23 -52 32 -52
q100 107 100 248q0 132 -60 132q-84 0 -112 -172zM560 992v-4q118 -60 256 -60q120 5 120 40q-42 80 -176 80h-8q-91 0 -192 -56zM536 492v-12q0 -117 136 -168l40 -8h12q124 0 124 132q0 69 -108 112l-48 8h-8q-88 0 -148 -64z" />
    <glyph glyph-name="F" unicode="F" horiz-adv-x="1213" 
d="M468 1868q145 0 388 -144q76 -28 108 -28q137 0 224 80h4l12 -12q-123 -156 -320 -156q-152 -132 -152 -232v-28q0 -68 48 -256q68 12 68 32q0 50 56 140l56 28q40 -22 40 -48v-28q-4 -21 -80 -88q0 -78 56 -148q12 -20 52 -20h16q6 0 28 44l16 12h12q16 0 16 -76
q0 -82 -112 -92q-122 0 -160 224v16h-4l-52 -16l88 -284q28 -122 28 -264v-52q-26 -173 -92 -264q-134 -208 -352 -208h-60q-201 0 -336 208q-61 143 -64 244q9 135 64 244q112 172 288 172l88 -16q0 44 108 124q52 34 100 44v4q-20 115 -20 188q0 178 148 336l68 60
q-116 0 -292 108q-117 68 -204 68q-99 -16 -148 -52q-132 -122 -132 -200q-16 -59 -16 -108v-4q16 -223 92 -260q77 -56 140 -56h32q129 0 204 184q24 89 24 156q0 109 -76 144q-39 24 -52 24q-89 -41 -108 -100l-12 -60q8 -47 36 -80l-12 -8h-4q-40 45 -40 88q0 68 52 132
l80 48h8q41 0 108 -60q40 -43 40 -140q0 -206 -148 -316q-57 -36 -112 -36q-124 0 -216 108q-36 51 -56 180v60q0 251 272 400q90 40 164 40zM952 1268q-32 -29 -32 -92v-16q60 39 60 76v8q-11 24 -28 24zM460 840q84 -48 124 -148q24 -41 24 -108l-12 -124l16 -92v-32
q-9 -80 -24 -80l-16 8q20 42 20 64v36l-8 56h-4q-61 -116 -196 -116q-93 0 -132 72l-8 32v56q0 47 92 96q0 8 56 12q90 0 184 -96q8 23 12 108q0 125 -116 224q-40 26 -100 36h-8q-58 -7 -120 -68q-52 -71 -88 -200l-16 -128q0 -171 72 -328q78 -96 232 -96v-4l4 4h24
q101 0 200 124q84 96 84 288q0 243 -84 496l-16 64h-8q-76 -12 -168 -104zM264 416q0 -66 88 -88h52q114 0 168 120q-90 104 -176 104q-85 0 -132 -84v-52z" />
    <glyph glyph-name="G" unicode="G" horiz-adv-x="1283" 
d="M728 1872q185 -24 236 -68q109 -80 140 -172q36 -106 36 -160v-72q0 -113 -72 -228q-81 -87 -152 -128q-18 0 -36 -12h-44q-75 0 -132 48q-83 -103 -164 -136v-4q92 -144 244 -144h52q128 21 128 48q23 115 72 152q37 36 76 36h16q41 0 48 -52q0 -65 -132 -140v-4
q0 -36 68 -140q104 -175 104 -300q0 -201 -152 -300q-113 -96 -256 -96h-132q-197 0 -336 164q-59 98 -68 196v36q0 121 116 244q112 84 260 84q110 -17 156 -56q96 -85 96 -192v-4l-12 -100q32 -38 32 -88v-24q-4 -60 -20 -60l-12 8l12 48q0 50 -20 96h-8q0 -39 -116 -116
l-40 -8h-40q-128 25 -128 76q-9 0 -12 32q0 88 100 148l56 8q109 0 180 -88l8 72q0 151 -180 220l-52 4q-109 -20 -160 -76q-52 -57 -68 -180l-4 -20v-68l4 -28h-4q24 -121 52 -160q116 -148 284 -148t276 124q64 110 64 232q0 98 -108 340l-20 84v8h-4q-38 -20 -120 -32
h-80q-170 0 -272 116l-28 28l-40 -4h-24q-264 0 -348 172q-48 112 -48 188v40q0 124 88 268q131 135 240 156l44 16l8 -20q-121 -25 -244 -128q-116 -135 -116 -320l4 -40h-4q26 -120 60 -176q65 -84 132 -108q57 -28 228 -28q-164 181 -164 376v4q0 248 124 376
q58 82 156 136q114 44 172 44zM424 1388q0 -252 104 -428q70 30 148 112l16 24q-92 115 -92 268q0 76 48 176q31 24 76 24q78 0 100 -176v-36q0 -130 -104 -260l36 -24l4 4l48 -4h8q101 0 172 132q28 76 28 216q0 167 -68 304q-57 112 -132 112l-40 12l-4 4h-12
q-111 0 -224 -124q-112 -170 -112 -336zM620 1368q0 -134 80 -252l4 -4h4q76 105 76 136q20 37 20 108v8q0 124 -60 172l-16 4h-24q-43 0 -56 -52q-28 -81 -28 -120zM1036 900v-36h4q116 60 116 120v4q-11 24 -40 24h-8q-43 -16 -64 -76zM556 340q20 -72 56 -72
q13 -12 68 -20h28q75 0 152 112l4 12q-24 49 -68 72q-11 12 -72 24h-52q-68 0 -108 -96z" />
    <glyph glyph-name="H" unicode="H" horiz-adv-x="1380" 
d="M1076 1868h12q84 0 148 -92q32 -61 32 -160q-32 -232 -108 -348q-89 -151 -268 -240l-28 -20l4 -240v-272q0 -222 56 -380q33 -48 92 -76q0 -8 56 -16q179 0 216 280v52q0 114 -104 200l-36 12q-80 0 -140 -120l-8 -80v-24q0 -109 76 -160v-8l-12 -12q-88 69 -88 200
q0 133 96 196q32 28 76 28q93 0 156 -184l8 -68q0 -99 -56 -220q-69 -112 -184 -112h-4q-273 0 -328 452q-12 104 -20 296l4 200h-4l-72 -20v-100l-8 -8h-4l-8 8v92l-76 -20q12 -144 12 -292v-108q0 -203 -76 -328q-114 -176 -240 -176q-177 0 -240 232l-8 100v40
q23 129 76 176q62 48 108 48q51 -8 96 -40q56 -42 56 -144v-44q-18 -93 -60 -136l-52 -56h-4q-8 0 -8 12q104 111 104 196v24q0 118 -88 156l-48 8h-8q-79 0 -136 -132l-16 -72v-32q0 -201 136 -296q42 -16 84 -16q96 0 148 88q48 62 48 260v92q0 130 -24 392
q-123 -48 -172 -148q-7 -40 -16 -40h-8l-4 4h-4q29 106 112 160q31 23 88 44l-8 204v168l4 20q-33 -16 -96 -16h-20q-83 0 -176 116q-28 57 -28 148q16 124 60 176q127 132 268 132h16l8 -8v-4l-8 -8h-36q-87 -7 -184 -80q-104 -89 -104 -220v-8q0 -139 124 -204
q38 -20 96 -20h4l76 16v8q0 293 140 496q48 60 120 60q56 -20 56 -128v-16q0 -168 -172 -352q-8 -16 -20 -16v-60l20 -356l80 20v100l8 8h4l8 -8v-92q80 18 80 32q0 192 36 424q62 215 136 332q109 128 176 128zM864 1036q92 33 216 160q103 105 160 352l8 96q0 118 -80 176
q-58 28 -76 28q-65 -21 -128 -120q-52 -66 -92 -504zM528 1444v-80q172 178 172 348v8q0 90 -40 112h-8q-108 -42 -108 -152q-16 -64 -16 -236z" />
    <glyph glyph-name="I" unicode="I" horiz-adv-x="1063" 
d="M668 1864q136 0 304 -100q32 -20 32 -28v-8q-6 -12 -92 -60q-108 -83 -108 -140v-4q46 0 112 -36q100 -64 100 -184q0 -151 -108 -224l-68 -48l56 -200q32 -123 32 -244q0 -240 -180 -464q-114 -106 -208 -120l-112 -4q-143 0 -264 92q-106 101 -132 192q-20 69 -32 172
q8 135 64 244q68 114 180 152q14 12 96 20h24q102 -17 164 -68q104 -89 104 -220v-8q0 -89 -28 -152l8 -64q-10 -84 -20 -84l-12 8l8 68v32h-8q-57 -96 -164 -96q-144 28 -144 92q-7 0 -8 48v4q0 69 92 124q19 12 72 20q108 -29 140 -76l24 -44h4q16 59 16 124
q0 185 -196 260l-52 8q-55 -9 -128 -88q-44 -52 -68 -128q-24 -67 -32 -172q0 -169 108 -348l44 -36q71 -52 152 -52h24q91 0 188 100q89 103 124 272q12 51 12 104q0 111 -72 464v12h-4q-18 -12 -100 -28h-12q-258 0 -368 140q-61 59 -80 148l-16 100v36q0 202 160 360
q172 128 360 128zM264 1340q5 -85 76 -252q32 -56 104 -92q100 -28 140 -28q64 0 128 32q-16 53 -28 192q0 120 44 296q-79 0 -208 -156q-24 -66 -32 -124h-8q-8 0 -8 12q0 172 216 280q56 11 56 20q21 82 216 204l16 8v8q-176 100 -288 100q-170 -23 -208 -52
q-216 -165 -216 -448zM800 1504q-11 -33 -20 -116q16 -220 52 -336q148 97 148 160q12 21 12 56v56q0 51 -40 108q-80 72 -152 72zM284 420q0 -75 76 -96l48 -12h36q74 0 140 112q-32 83 -88 108l-68 20q-92 0 -140 -96z" />
    <glyph glyph-name="J" unicode="J" horiz-adv-x="1143" 
d="M532 1868q118 -4 248 -64q16 -14 52 -20l4 -4v-4q0 -8 -88 -88q-84 -100 -84 -140q81 0 168 -76q33 -36 44 -112v-68q0 -88 -112 -172q30 -92 48 -92q73 -5 172 -64q116 -103 116 -244q0 -201 -212 -316q-54 -153 -184 -300q-9 0 -92 -64q-78 -40 -140 -40h-128
q-131 0 -260 172q-53 67 -72 220l-4 40v20q0 230 216 416q130 93 244 136h8v4h-4l-48 -4q-187 0 -296 100q-128 102 -128 276v20q0 208 176 356q165 104 292 104zM128 1372q9 -94 80 -244q41 -68 176 -100l36 -4q208 27 208 56q-60 159 -60 260q8 120 24 172h-4
q-81 -18 -160 -96q-72 -71 -72 -164l-4 -4h-8q-8 0 -8 12q0 151 196 256l76 24q53 101 132 180l60 48v4q-150 72 -244 72q-216 -28 -216 -56q-108 -76 -160 -180q-48 -77 -48 -208zM652 1524l-8 -48q0 -92 108 -324l8 -8q80 65 80 96q11 0 16 96v20q0 64 -56 116
q-59 52 -144 52h-4zM584 1036v-4l56 8v4q0 8 -12 8zM624 1016q-106 0 -304 -132q-168 -205 -168 -324q-9 0 -20 -140q12 -125 52 -236q33 -91 112 -144q44 -20 104 -20h60q147 0 264 180l36 144h-4q-96 -28 -200 -28q-175 0 -228 136l-12 56v12q0 73 64 136q78 48 128 48
q52 -3 52 -16v-4l-4 -4v-4l-20 4h-48q-136 -40 -136 -108q-9 0 -16 -48v-12q0 -63 64 -128q56 -44 124 -44h108q30 0 128 28l4 60v104q0 86 -36 260q-28 128 -76 228l-4 -4h-24zM808 1008v-4q100 -234 100 -424q0 -53 -16 -148h4q180 115 180 252v52q0 141 -136 232
q-96 40 -132 40z" />
    <glyph glyph-name="K" unicode="K" horiz-adv-x="1366" 
d="M660 1872q59 0 68 -144v-8q0 -157 -164 -340q-23 -28 -32 -28v-72l12 -216h4q172 -34 172 -60h4q15 13 44 72l-4 156q2 453 196 588q55 25 100 32q104 0 196 -124q48 -65 48 -156q0 -106 -76 -208q-54 -56 -116 -56q-86 0 -120 112l-4 60v16q8 86 68 168l40 28
q9 0 12 -20q-34 0 -84 -112l-16 -68v-32q15 -106 64 -120q0 -8 40 -12q105 0 156 160l12 68v44q0 122 -148 212q-41 16 -64 16q-127 0 -172 -240q-7 -471 -44 -488q-15 -44 -88 -120h-4q140 -105 140 -280l12 -164l-8 -188q0 -234 120 -304q28 -12 52 -12q119 0 204 184
q12 52 12 116v8q0 193 -144 232h-16q-116 -50 -116 -112q-16 -38 -16 -56v-8q38 -200 92 -200v-8l-12 -12q-50 31 -68 88q-32 86 -32 132q0 148 160 200q67 0 140 -100q32 -74 32 -112v-56q0 -236 -204 -316h-28q-133 0 -212 116q-23 0 -80 180q-14 0 -24 536
q-17 82 -40 104l-100 -48l-68 -12q12 -94 12 -228v-184q0 -270 -192 -432q-76 -44 -124 -44q-197 0 -248 264l-4 68v44q23 130 72 168q43 44 128 56q136 -44 136 -148l4 -52q0 -123 -116 -224l-12 12v8q108 89 108 212q0 112 -72 148q0 17 -56 20h-4q-80 -17 -116 -60
q-26 -31 -52 -132v-48q0 -173 112 -280q51 -32 104 -32q130 0 180 140q24 83 24 268q0 186 -28 460q-94 0 -132 88q0 52 124 92l-4 80l4 108v16q-50 -12 -88 -12h-24q-89 0 -180 120q-20 41 -28 116v28q0 104 80 200q123 116 272 116l4 -4v-12l-8 -8h-12q-159 0 -272 -148
q-44 -83 -44 -156v-12l4 -20h-4q18 -98 64 -136q62 -64 160 -64h4q76 7 76 36q0 264 128 476q66 76 124 76zM532 1460v-84q172 192 172 324v36q0 97 -40 112q-46 -5 -88 -56q-44 -72 -44 -332zM300 984q28 -60 72 -60l40 -12l-4 20v16l-4 100q-100 -24 -100 -64h-4z
M544 1044l12 -136q98 17 136 56l12 16q-44 40 -108 56z" />
    <glyph glyph-name="L" unicode="L" horiz-adv-x="1243" 
d="M816 1864q99 0 192 -64q144 -161 144 -272q6 0 12 -88q0 -140 -112 -292q-85 -64 -168 -64q-104 22 -104 36h-8q0 -21 -112 -116q-75 -48 -96 -48q28 -229 28 -320v-16q0 -296 -108 -404l-44 -64v-4q124 -103 280 -128q148 0 256 156q56 122 56 252v40q0 152 -64 264
q-51 68 -116 68q-70 0 -160 -92q-56 -85 -56 -168l4 -40q50 66 128 80l36 8q62 0 136 -60q24 -47 24 -64v-24q0 -78 -112 -128h-44q-113 0 -156 92l-12 28h-4l-16 -80q0 -33 56 -136v-4l-4 -4h-8q-29 36 -56 104l-8 52q0 36 28 96l-12 76q0 138 104 228q75 56 148 56
q185 0 280 -220q28 -87 28 -156q0 -314 -256 -416q0 -13 -200 -28h-16q-54 0 -220 56q-73 44 -100 44q-37 -45 -136 -76l-64 -8h-8q-176 29 -176 112q0 34 76 76q77 32 120 32q82 -2 212 -72h8q72 69 72 204v76q0 142 -64 500q-228 0 -344 260q-9 25 -16 112q0 158 64 256
q65 128 260 204q112 20 152 20l4 -4v-8q0 -8 -160 -32q-65 -16 -184 -112q-112 -135 -112 -292l-4 -32q0 -184 188 -316q79 -32 128 -32h20v4l-28 264l8 152q8 0 8 12q0 244 268 420q80 44 140 44zM524 1456v-24q0 -247 36 -456q112 37 200 160v8q-52 51 -76 176v44
q0 124 92 152h8q62 0 76 -116v-68q0 -96 -72 -196q48 -24 68 -24h36q61 24 88 80q52 123 52 196v96q0 185 -88 304q-28 35 -108 52h-16q-140 0 -240 -172q-56 -69 -56 -212zM704 1348q0 -81 64 -192h4q68 75 68 180v60q-8 100 -68 100q-29 -12 -40 -36q-28 -33 -28 -112z
M652 460q16 -68 64 -104q54 -24 108 -24h24q96 41 96 128q0 79 -140 108q-152 -33 -152 -108zM20 124q0 -29 64 -64q63 -24 112 -24q95 10 172 72v4q-140 60 -204 60q-144 0 -144 -48z" />
    <glyph glyph-name="M" unicode="M" horiz-adv-x="1577" 
d="M1280 1860q12 -4 12 -24l-44 -36q-84 -77 -112 -196q-64 -193 -64 -876v-32q18 -524 44 -524q29 -99 72 -128l48 -20h36l4 -4q116 29 152 88q68 102 68 244v8q0 81 -52 164q-37 43 -92 60q-51 -10 -100 -56q-58 -105 -64 -184q0 -108 108 -212l-12 -12q-116 95 -116 224
q0 75 72 204q73 56 112 56q58 0 128 -96q40 -102 40 -148q0 -135 -68 -256q-85 -104 -196 -104h-68q-44 0 -116 76q-132 128 -132 436l-12 316q0 263 48 516q75 276 152 376q98 112 120 112v4h-12q-130 0 -260 -192q-64 -119 -104 -332q-28 -182 -28 -264l4 -332
q0 -513 -80 -612q-26 -54 -92 -104h-4l-12 12v8q25 0 48 124l8 144q0 81 -80 412q-32 171 -68 452l-4 4v12l-12 188q0 146 56 344l28 60v4q-64 -39 -108 -176q-16 -33 -16 -68v-188q0 -173 40 -632l4 -344q-21 -169 -60 -212q-101 -144 -252 -144q-91 0 -140 48
q-104 103 -104 248v40q58 232 200 232q63 0 124 -76q24 -64 24 -140q0 -98 -112 -216l-12 12q104 120 104 208q0 159 -100 184l-28 8q-60 -12 -92 -36q-88 -103 -88 -212q0 -163 128 -260q36 -20 96 -20q109 0 192 144q28 60 28 324v12q0 69 -36 460l-8 320q0 357 184 508
l128 68h8l12 -12q-100 -105 -100 -184v-52q0 -137 56 -448q52 -263 84 -584q20 -78 20 -216h4l12 380l-4 224v76q0 172 72 476q67 170 144 244q111 100 200 100h40z" />
    <glyph glyph-name="N" unicode="N" horiz-adv-x="1330" 
d="M648 1860h4l12 -12v-4q-71 -74 -88 -176l-12 -80q0 -111 168 -624q116 -430 116 -608q0 -176 -76 -284h4q124 102 124 372q0 192 -72 688l-16 184q27 336 52 336q37 114 84 148q62 56 184 56q94 0 172 -160l12 -96q0 -195 -108 -260l-48 -12h-52q-59 18 -92 84
q-20 65 -20 88v4q0 101 112 192h4l12 -12q-108 -90 -108 -184q10 -76 52 -128q27 -24 88 -24q102 0 136 188v104q0 87 -104 176l-60 20h-8q-67 0 -124 -84q-76 -185 -76 -332q0 -141 28 -504v-160q0 -516 -36 -516q-70 -175 -212 -240l-12 12v4q76 65 76 208v16
q0 164 -176 700q-52 179 -88 464v64q0 65 44 240q-92 -117 -92 -304v-88q20 -440 40 -608l8 -100q0 -422 -144 -532q-61 -68 -108 -68l-12 -4h-28q-129 0 -188 160l-20 120q0 67 48 184q60 108 120 108q0 8 16 8q87 0 116 -96l20 -80v-16q0 -125 -108 -220h-4l-8 8v4
q100 100 100 216q-26 160 -100 160h-4q-79 0 -116 -84q-34 -36 -56 -172v-24q0 -178 124 -244q0 -7 68 -12q58 0 148 164q24 106 24 388v20l-28 576v84q24 272 68 352q62 161 220 252z" />
    <glyph glyph-name="O" unicode="O" horiz-adv-x="947" 
d="M516 1864q138 0 256 -96q75 -77 96 -156q16 -30 16 -68v-28q0 -131 -116 -240q79 -117 104 -308l8 -100v-88q0 -424 -176 -652q-64 -83 -128 -104q-31 -24 -144 -24h-8q-88 0 -208 96q-68 55 -124 164q-92 167 -92 568q0 427 140 732l96 140q153 156 248 156zM164 760
q0 -410 72 -568q42 -114 96 -132q68 -40 120 -40q188 0 264 388q28 121 28 324q0 291 -44 504q-60 -32 -104 -32q-96 0 -144 28l-4 -48q0 -42 56 -280q36 -137 36 -228q0 -143 -68 -256q-107 -116 -168 -116l-4 4v8l60 32q88 59 88 196q0 33 -68 324q-40 139 -40 204v16
q0 111 52 196v4q-72 74 -72 192q0 154 128 204q38 16 72 16q46 -8 84 -60l16 -48q0 -54 -64 -120q-49 -32 -60 -32l-4 4v16q72 31 88 76l16 44v12q0 55 -72 84l-12 4q-42 0 -120 -52q-48 -51 -48 -144h-4l4 -4v-28q0 -84 64 -152q47 80 88 80q28 16 96 24q78 0 164 -108
q91 79 104 184l4 28v32q0 80 -88 196q-112 104 -236 104q-112 -27 -156 -84q-68 -76 -116 -184q-39 -86 -64 -248q-40 -261 -40 -564zM460 1256q0 -20 128 -32q38 0 108 28q-34 128 -120 128h-12q-92 -24 -92 -64q-5 0 -16 -60h4z" />
    <glyph glyph-name="P" unicode="P" horiz-adv-x="1317" 
d="M716 1876q184 -22 184 -40q152 -41 276 -220q72 -155 72 -220q8 0 12 -132q0 -121 -68 -288q-130 -198 -316 -264q-6 -7 -72 -16h-44l-4 -4h-4l8 -144v-28q0 -183 -60 -272q-57 -153 -208 -224q-77 -24 -204 -24q-137 0 -232 128q-56 74 -56 172v20q0 177 156 272l84 12
q146 0 188 -64q52 -62 52 -124q-3 -56 -8 -56q28 -45 28 -96v-16q0 -61 -32 -80l-12 8q24 35 24 80l-12 72h-4q0 -49 -76 -112l-56 -16h-8q-97 0 -116 52q-28 56 -28 96q0 67 100 108h48q124 -31 124 -68h4v56q-8 45 -68 108q-22 20 -144 32q-164 0 -216 -204l-8 -40v-44
l4 -28h-4q10 -66 60 -140q76 -83 136 -96l40 -8h84q76 0 156 52q87 88 100 172q17 29 28 224q-8 185 -24 228q-81 0 -140 100v12q0 75 96 88h4l12 -4l-8 84l-120 -16q-164 0 -284 140q-52 97 -52 188q0 77 60 232q53 107 216 240q189 112 332 112zM132 1292v-4
q0 -202 184 -276q40 -24 132 -24h28l84 12l-8 88v92q0 136 80 320v4h-4q-106 -11 -192 -76l-68 -72l-12 12q78 102 160 128q60 28 112 28h12l4 -4h4q47 115 224 188l48 16v-4l4 -12q-184 -111 -184 -164q-7 0 -16 -40q77 -27 116 -100q28 -43 28 -92q0 -163 -124 -236
l-44 -32v-4l48 -320q66 5 144 52q216 202 216 568q0 170 -84 352q-117 136 -184 136q0 9 -104 24h-16q-189 0 -368 -140q-150 -132 -176 -228q-44 -108 -44 -192zM716 1484q-32 -93 -32 -196v-72l12 -152q148 97 148 208l4 40q0 86 -92 152zM480 812q16 -45 72 -80l48 -12
q-23 156 -32 156l-24 4q-64 -22 -64 -68zM204 364v-24q13 -108 60 -108q0 -7 56 -12q93 0 132 128q0 52 -124 88h-28q-59 0 -96 -72z" />
    <glyph glyph-name="Q" unicode="Q" horiz-adv-x="1160" 
d="M508 1876q73 0 212 -84q101 -94 148 -196q100 -226 100 -360v-28q0 -341 -84 -536q-89 -217 -148 -328l-76 -92l-116 -108v-8q12 0 84 -52q96 -60 180 -60q207 0 280 164l4 36v20q0 106 -84 160q-41 20 -64 20q-112 -28 -112 -64q-24 -39 -24 -96q0 -99 88 -120l8 -8v-4
l-8 -8h-4q-59 0 -96 84l-8 40v12q0 136 108 176l36 8h16q31 0 104 -44q64 -72 64 -160q0 -143 -180 -216q-49 -20 -116 -20h-28q-115 0 -312 92q-116 -96 -268 -96q-94 0 -192 64l-20 56q0 113 208 152h28q130 0 288 -116h4q116 103 168 208q46 99 80 236q60 265 60 516
q0 157 -56 420q-79 220 -168 280q-80 36 -112 36q-112 0 -208 -84q-128 -170 -128 -496q0 -186 64 -392q61 -128 124 -128l12 -4h28l36 -4q95 41 144 128q76 149 76 304q0 212 -136 284l-24 8q-43 0 -96 -92l-12 -84q0 -86 60 -196l32 -40v-4l-8 -8h-4q-66 64 -84 152
q-16 60 -16 100q0 146 124 192h16q62 -21 112 -92q60 -111 60 -220q0 -193 -120 -372q-88 -84 -160 -84h-48q-75 10 -196 116q-132 181 -132 448q23 231 68 304q52 115 168 204q76 58 212 80zM20 116q26 -64 68 -64q0 -15 108 -28h32q128 0 236 84l-96 52q-118 48 -180 48
q-160 -9 -160 -56z" />
    <glyph glyph-name="R" unicode="R" horiz-adv-x="1437" 
d="M556 1868q161 0 280 -88q66 24 152 24q113 -16 168 -52q144 -114 144 -272q-22 -152 -52 -152q-27 -43 -76 -64l-8 12q104 80 104 140l8 56v40q0 130 -160 240q-100 32 -156 32l-100 -16q102 -82 124 -136q84 -104 84 -308v-12q0 -328 -272 -476v-4q89 -54 124 -168
q28 -143 38 -513q38 -107 82 -107l28 -16h8l56 -4q138 0 196 148q28 85 28 136v48q-30 144 -56 144q-63 61 -120 72q-57 0 -120 -76q-36 -90 -36 -164q8 -63 64 -148l44 -36l-12 -12q-62 28 -104 144l-12 48v20q0 92 52 180q58 58 120 64q69 0 160 -100q40 -87 40 -132v-80
q0 -71 -56 -172q-72 -104 -176 -104h-20q-211 0 -300 208q-21 0 -36 476q-12 90 -36 120h-4q-123 -48 -180 -56q24 -118 24 -176v-132q0 -191 -116 -364q-68 -80 -188 -80h-4q-143 0 -220 124q-40 83 -40 180v8q0 184 148 252l52 4q82 0 120 -124l8 -56v-40
q0 -126 -112 -188q-9 0 -12 20q104 48 104 184v16q0 132 -96 164h-20q-131 0 -164 -176q-8 -16 -8 -44v-16q0 -218 172 -280l72 -8h4q72 0 148 112q20 92 20 264q0 140 -24 352q-108 11 -108 76q10 64 60 64l36 8l-8 68q-21 -8 -84 -8q-183 0 -284 188q-33 48 -48 172
q0 78 64 248q41 65 116 148q131 114 320 148zM24 1336v-12q0 -192 168 -312q91 -36 132 -36l92 8l-8 92v52q0 123 64 316l8 12q-89 0 -156 -64l-72 -80l-12 16l68 80q75 68 180 68q58 134 296 276q-78 69 -212 92q-150 0 -332 -108q-158 -150 -168 -220q-48 -117 -48 -180z
M564 1476v-4q44 0 120 -76q44 -75 44 -124q0 -151 -136 -236q-33 -24 -48 -24l8 -108h20q101 0 180 -40h4q114 117 156 324l8 188q0 133 -64 284q-44 76 -60 76q-160 -91 -216 -216zM556 1456q-24 -125 -24 -220q7 -200 16 -200q41 14 104 76q24 20 44 92l8 44v56
q-29 93 -112 140zM552 884q11 -104 20 -104q97 27 144 60q-65 44 -144 44h-20zM348 828q13 -60 88 -60v4l-8 104q-80 -11 -80 -48z" />
    <glyph glyph-name="S" unicode="S" horiz-adv-x="1190" 
d="M688 1868q172 -23 224 -60q204 -116 204 -360q0 -191 -140 -268q-61 -60 -216 -60h-4q-23 0 -100 40v-4l-52 -56v-4q134 -74 244 -152q175 -111 228 -248q52 -109 52 -220q0 -101 -84 -264q-183 -212 -420 -212q-262 0 -404 232q-68 97 -68 248v12q19 111 100 208
q77 79 204 108h32q81 0 152 -44q91 -53 132 -168q14 -94 40 -112q36 -59 36 -116v-40q0 -57 -40 -84h-4l-8 8v4q32 31 32 68v40q0 49 -36 116h-4q0 -85 -92 -176q-42 -32 -136 -32q-116 30 -116 132q0 99 96 148q44 28 72 28h12q57 0 140 -44v8q-14 87 -80 160
q-66 62 -136 72q-91 -21 -164 -120l-32 -60q-40 -91 -40 -156v-32l-4 -4q0 -75 44 -204q115 -176 248 -176h44q173 0 300 196q36 72 36 180v40q0 197 -196 364q-64 48 -264 172q-9 15 -76 56q-43 -20 -92 -20h-20q-232 0 -316 236q-16 63 -16 108v24q0 117 84 252
q63 75 124 112q67 39 152 56l4 -4v-8l-124 -48q-144 -89 -180 -200q-40 -91 -40 -148v-32q0 -185 164 -296q89 -32 140 -32h24l80 12v4q-148 156 -160 280q-12 32 -12 84v8q0 98 52 236q97 145 168 164q128 48 212 48zM392 1500v-4l-4 -4l4 -4v-32q0 -114 88 -244
q70 -82 104 -96l64 56q-96 107 -96 228q0 65 36 164q42 48 76 48q42 0 96 -84q12 -58 12 -108q0 -129 -96 -244q17 -20 68 -20h32q56 0 140 96q68 78 68 200q0 248 -108 316q-71 72 -192 72l-4 4h-4q-107 -19 -176 -84q-81 -76 -88 -140q-20 -66 -20 -120zM572 1384
q0 -86 84 -188l4 -4h4l56 84q32 76 32 152q0 123 -72 156l-4 4h-12q-70 0 -88 -152zM464 392q0 -47 56 -84l48 -16q130 0 168 96q32 58 32 104v8q0 28 -136 60h-20q-148 -44 -148 -152v-16z" />
    <glyph glyph-name="T" unicode="T" horiz-adv-x="1213" 
d="M468 1868q145 0 388 -144q76 -28 108 -28q137 0 224 80h4l12 -12q-123 -156 -320 -156q-152 -132 -152 -232v-28q0 -126 124 -496q48 -135 48 -328v-52q-26 -173 -92 -264q-134 -208 -352 -208h-60q-201 0 -336 208q-61 143 -64 244q9 135 64 244q112 172 288 172
q59 0 140 -48q116 -109 116 -236l-12 -124l16 -92v-32q-9 -80 -24 -80l-16 8q20 42 20 64v36l-8 56h-4q-61 -116 -196 -116q-93 0 -132 72l-8 32v56q30 97 144 104q119 -26 148 -52q29 -36 40 -36q8 10 12 104q0 125 -116 224q-40 26 -100 36h-8q-58 -7 -120 -68
q-52 -71 -88 -200l-16 -128q0 -171 72 -328q78 -96 232 -96v-4l4 4h24q101 0 200 124q84 96 84 288q0 238 -80 484q-48 156 -48 292q0 178 148 336l68 60q-116 0 -292 108q-117 68 -204 68q-99 -16 -148 -52q-132 -122 -132 -200q-16 -59 -16 -108v-4q16 -223 92 -260
q77 -56 140 -56h32q131 0 208 192q20 97 20 140v12q0 125 -108 160h-4q-75 0 -124 -96l-12 -60q8 -47 36 -80l-12 -8h-4q-40 45 -40 88q10 88 48 128q55 48 116 48h4q34 0 76 -48q44 -61 44 -128v-12q0 -218 -148 -324q-57 -36 -112 -36q-124 0 -216 108q-36 51 -56 180v60
q0 251 272 400q90 40 164 40zM264 456v-40q0 -66 88 -88h52q114 0 168 120q-74 96 -192 96l-4 4h-4q-53 0 -104 -72z" />
    <glyph glyph-name="U" unicode="U" horiz-adv-x="1407" 
d="M260 1864q68 0 156 -72q118 -130 140 -220l8 -116q0 -259 -76 -968l-4 -124q19 -268 52 -268q34 -68 140 -68h8q88 18 136 80l44 76q-76 126 -92 316q-39 269 -40 440v132q0 331 68 596q45 148 120 192l24 8q74 -14 108 -332q12 -155 12 -540v-100q0 -278 -136 -648
q49 -164 92 -200q13 -17 76 -28q163 0 236 196q12 50 12 116v12q0 166 -136 204l-24 4q-120 -30 -120 -72q-32 -51 -32 -100q0 -107 124 -180q0 -12 -16 -12q-128 72 -128 184q0 129 104 184l68 16q85 0 152 -96q32 -59 32 -144q0 -240 -196 -320q-42 -12 -84 -12
q-78 0 -164 92l-44 68q-86 -156 -232 -156q-152 23 -152 48q-144 108 -144 416v132q0 128 76 744l8 124q0 274 -140 368l-28 4h-12q-82 0 -160 -72q-74 -119 -76 -212v-16q0 -88 64 -184q44 -32 104 -32q95 0 136 128l8 40v32q0 94 -96 172q6 16 12 16q104 -84 104 -172
l4 -12q-27 -224 -160 -224h-4q-114 0 -152 80q-40 97 -40 152v32q6 80 60 180q25 54 96 88q60 28 104 28zM864 1356q27 -1028 48 -1028q6 0 8 -36h4q120 347 120 632v16q0 753 -56 824q-15 59 -28 64h-12q-30 0 -64 -208q-20 -91 -20 -264z" />
    <glyph glyph-name="V" unicode="V" horiz-adv-x="1243" 
d="M932 1868q124 0 172 -64q88 -96 88 -204q0 -62 -40 -180q-72 -100 -132 -100h-16q-115 0 -140 192q0 99 76 180l20 8l8 -12q-54 -43 -72 -108l-12 -64q20 -176 128 -176q51 0 112 72q44 106 44 164v28q0 146 -140 232l-96 8q-57 0 -124 -124q-32 -87 -32 -260
q0 -75 60 -436q36 -273 36 -324v-112q0 -153 -92 -364q-42 -66 -88 -120q-58 -57 -176 -104l-8 12v8q84 43 84 244q0 138 -112 420q-96 250 -96 272q-11 8 -64 236l-16 92l-104 -16q-102 0 -172 116q-20 36 -28 112q24 144 44 144q42 85 156 136l76 20h28l8 -8v-4
q0 -8 -92 -20q-149 -74 -176 -168l-20 -76v-16q0 -152 132 -208l24 -4h48q40 0 76 20l-8 84v104q33 324 200 324q55 0 84 -128v-64q-31 -139 -108 -228l-72 -68q232 -709 236 -744q16 -76 16 -164v-56q0 -188 -84 -324h4q119 50 200 216q28 94 28 248q0 209 -88 580
q-36 202 -36 284v64q0 183 92 316q108 112 164 112zM364 1568q12 -152 32 -200h4q98 71 140 200q8 0 20 100v24q-21 108 -64 108l-4 4q-74 0 -92 -92q-36 -111 -36 -144z" />
    <glyph glyph-name="W" unicode="W" horiz-adv-x="1553" 
d="M864 1856h4l12 -12v-4q-96 -88 -96 -200v-144l12 -156h-4q132 -514 132 -704q-12 -226 -48 -372l-76 -188q240 131 240 504q0 151 -28 380l-52 452q0 166 72 296q74 109 184 144l20 4h48q65 -7 132 -52q84 -99 84 -120q24 -53 24 -156q0 -61 -48 -140q-50 -56 -116 -80
h-44q-77 0 -128 116l-16 92q29 106 72 124l20 8l4 -4v-8q-72 -51 -72 -144q0 -62 48 -124q47 -40 72 -40h4q114 0 172 136l12 68q0 208 -152 284q-40 16 -68 16q-59 0 -140 -128q-56 -137 -56 -252v-4l16 -752q0 -272 -88 -404q-67 -159 -216 -240q-9 -15 -68 -52h-8l-8 8v8
q30 0 76 104q44 120 44 268v48q0 66 -100 552q-36 219 -36 340q0 161 28 312v4h-4q-84 -151 -84 -328v-264l-4 -4l4 -4v-88q20 -220 20 -396q0 -243 -64 -360q-36 -71 -96 -116l-140 -84h-8l-8 8v12q112 86 112 284q0 149 -56 348q-24 67 -64 340q-36 222 -36 304h-8
q-15 -16 -100 -16h-8q-82 0 -156 112q-21 45 -28 116q19 133 68 184q120 116 236 116q0 6 40 8l4 -4v-8q0 -11 -120 -28q-91 -39 -148 -104q-49 -65 -56 -152v-8q0 -162 152 -212h24q70 0 100 20l-4 4v44q0 149 96 356q87 116 132 116q0 7 20 8h16q68 -34 68 -132v-52
q-20 -123 -112 -232q-34 -34 -104 -84v-4q64 -396 100 -552q28 -148 28 -276q0 -215 -68 -352l-60 -108h4q130 59 184 204q40 109 40 316q0 100 -24 440q0 510 48 544q25 89 184 284zM396 1536l12 -164q122 72 176 212q24 58 24 116v12q-10 116 -64 116q-80 -38 -100 -100
q-48 -134 -48 -192z" />
    <glyph glyph-name="X" unicode="X" horiz-adv-x="1260" 
d="M924 1868q114 0 208 -172q16 -58 16 -112v-4q0 -141 -80 -208q-34 -24 -72 -24q-91 0 -136 108l-12 76q11 160 72 160l8 -12q-56 -32 -56 -128l-4 -16q0 -136 112 -164h36q74 0 108 156l4 48v12q0 155 -144 244l-44 12q-96 0 -168 -264q-48 -130 -84 -388l-28 -192h132
l8 -8v-4l-8 -8h-136l-28 -216q24 -171 88 -444q36 -84 96 -184q77 -104 188 -104q91 0 160 100q20 36 20 124v60q-2 77 -52 184q-24 48 -100 72q-108 -25 -108 -60q-15 -12 -40 -92q0 -85 64 -184q20 -26 52 -44v-4l-12 -12q-46 17 -92 108q-32 81 -32 132q0 62 72 144
q59 32 100 32q72 0 132 -120q40 -114 40 -192q0 -184 -96 -232q-51 -36 -92 -36h-12q-195 0 -292 276q-28 39 -96 412h-4q-52 -330 -116 -512q-64 -116 -172 -176l-48 -12h-64q-119 36 -164 120q-48 81 -48 188v48q48 216 164 216q92 0 156 -104q12 -36 12 -72
q0 -101 -52 -208h-4l-12 4v12q48 114 48 172v20q0 116 -124 152l-28 4q-66 0 -116 -116q-24 -54 -24 -124v-24q0 -112 92 -220q81 -48 108 -48h20q78 0 120 128q33 48 64 212q44 203 108 620h-100l-8 8v4l8 8h104l20 128v8q-35 286 -132 500q-77 151 -176 188l-36 8h-4
q-77 0 -156 -92q-32 -90 -32 -132v-16q32 -168 64 -168q41 -56 76 -56h20q108 0 108 144v8q0 54 -64 140l12 12q28 0 72 -144v-12q0 -131 -80 -164l-28 -4h-28q-85 0 -148 128q-24 88 -24 116q0 187 140 244q0 12 68 16q122 0 236 -208q84 -204 120 -404q0 -32 8 -32
q43 326 88 416q107 236 224 236z" />
    <glyph glyph-name="Y" unicode="Y" horiz-adv-x="1070" 
d="M272 1868q56 0 136 -56q96 -100 96 -172q11 0 16 -112v-52q0 -95 -52 -304q-12 -48 -28 -208q0 -96 60 -160q26 -16 40 -16h32q92 0 184 96q-80 232 -80 444v16q34 292 56 292q3 41 80 140q32 28 96 48q84 -41 84 -104q20 -74 20 -136v-108q0 -259 -144 -472
q92 -245 92 -512q0 -185 -80 -272q-145 -204 -272 -204q-21 -11 -84 -16q-280 0 -348 272l-4 84v12q0 126 156 220q31 17 112 32q120 0 204 -136l12 -68v-16q52 -60 52 -152q0 -31 -16 -36l-12 4l8 36q0 63 -28 108v4h-4q-7 -50 -48 -84q-48 -39 -96 -44h-40
q-108 15 -108 108q0 78 68 108q34 12 76 16q100 -12 128 -44q0 93 -120 156l-60 16h-32q-67 -7 -140 -60q-92 -89 -92 -172v-32q27 -164 48 -164q80 -148 288 -148q115 24 156 68q144 116 144 296v24q0 215 -52 400q-5 0 -12 56q-93 -100 -220 -100h-28q-77 12 -124 68
q-76 122 -76 284q0 41 68 276q20 83 20 188v64q0 97 -72 180l-64 24q-93 0 -208 -132q-40 -100 -40 -204v-8q0 -45 52 -132q21 -20 64 -20h52q61 0 112 128l8 52q0 100 -84 172l12 12q92 -63 92 -188q0 -103 -104 -188l-68 -12q-94 0 -120 60q-36 81 -36 112v32
q0 237 192 316q34 20 80 20zM804 1508v-12q0 -252 56 -464h4q120 208 120 368q8 0 8 148v40q-13 180 -60 196q0 10 -32 16q-68 -48 -68 -112q-20 -60 -28 -180zM384 336q0 -52 68 -76l28 -4h16q91 0 136 92l4 28v12q-21 40 -96 56l-36 4q-112 -21 -112 -64z" />
    <glyph glyph-name="Z" unicode="Z" horiz-adv-x="1327" 
d="M544 1872q152 0 316 -108l48 -40q80 100 196 100h8q120 -21 120 -92t-80 -116q-52 -16 -76 -16h-48q-152 29 -152 48h-4q-140 -197 -140 -616h4q128 22 176 64q21 40 32 44l12 -12q-24 -54 -100 -88l-128 -32q-16 -218 -60 -400q-56 -209 -148 -352l-44 -52v-8l200 -136
q73 -36 164 -36q59 8 124 36q160 132 160 336v80q0 203 -172 292l-24 4q-39 -7 -120 -56q-88 -115 -88 -200q7 -52 16 -52q85 76 160 76q102 0 136 -68q20 -28 20 -52v-32q-31 -100 -132 -100h-8q-128 0 -164 72q-20 27 -20 40h-4l-20 -84v-8q0 -46 48 -96v-8l-8 -8
q-43 31 -60 88v36l28 112l-12 104q16 86 68 164q93 92 176 92q121 0 232 -108q96 -116 96 -268q0 -170 -112 -292q-129 -124 -344 -124q-174 0 -324 80l-88 52q-85 -108 -208 -108h-32q-164 36 -164 148v8q9 49 76 100q44 17 132 28q98 0 240 -92h8q27 0 60 224l48 524l4 16
q-117 -23 -176 -80q-18 -48 -24 -48h-12v12q0 35 56 80q56 38 156 56q52 267 124 440q65 151 132 208q8 2 16 20q-237 168 -348 168h-16q-98 0 -212 -64q-172 -113 -172 -308q0 -133 144 -160l80 -8q120 0 220 144q24 72 24 96q0 73 -100 88q-44 0 -104 -52l-20 -60h-8l-8 8
q0 97 136 124h16q88 -23 88 -52q20 -11 20 -60q0 -80 -80 -168q-84 -88 -188 -88q-172 0 -220 100q-20 29 -20 84q0 247 236 356q131 56 236 56zM928 1712q50 -39 116 -60q39 -16 76 -16q68 0 92 92q0 59 -108 76q-103 0 -176 -92zM740 424q15 -52 52 -88q59 -28 120 -28
q120 15 120 88v24q-28 88 -80 88q0 7 -40 8h-36q-66 0 -136 -84v-8zM20 160q0 -60 88 -96q47 -20 64 -20h40q80 8 144 64l32 40q-132 92 -212 92q-156 0 -156 -80z" />
  </font>
</defs>
</svg>
